<?xml version="1.0" encoding="UTF-8" standalone="no"?>
<svg
   xmlns:dc="http://purl.org/dc/elements/1.1/"
   xmlns:cc="http://creativecommons.org/ns#"
   xmlns:rdf="http://www.w3.org/1999/02/22-rdf-syntax-ns#"
   xmlns:svg="http://www.w3.org/2000/svg"
   xmlns="http://www.w3.org/2000/svg"
   width="120"
   height="120"
   viewBox="0 0 120 120"
   id="svg4409"
   version="1.1">
  <defs
     id="defs4411" />
  <metadata
     id="metadata4414">
    <rdf:RDF>
      <cc:Work
         rdf:about="">
        <dc:format>image/svg+xml</dc:format>
        <dc:type
           rdf:resource="http://purl.org/dc/dcmitype/StillImage" />
        <dc:title></dc:title>
      </cc:Work>
    </rdf:RDF>
  </metadata>
  <rect
     ry="0.00012879382"
     y="0"
     x="0"
     height="120"
     width="120"
     id="rect5248"
     style="color:#000000;clip-rule:nonzero;display:inline;overflow:visible;visibility:visible;opacity:1;isolation:auto;mix-blend-mode:normal;color-interpolation:sRGB;color-interpolation-filters:linearRGB;solid-color:#000000;solid-opacity:1;fill:none;fill-opacity:1;fill-rule:nonzero;stroke:none;stroke-width:0;stroke-linecap:butt;stroke-linejoin:miter;stroke-miterlimit:4;stroke-dasharray:none;stroke-dashoffset:0;stroke-opacity:1;color-rendering:auto;image-rendering:auto;shape-rendering:auto;text-rendering:auto;enable-background:accumulate" />
  <path
     id="rect5178-3-2"
     d="m 37.875329,35.71799 a 24.901875,24.901875 0 0 0 -1.14481,35.197956 24.901875,24.901875 0 0 0 31.218501,4.181727 l 13.43636,14.339775 a 4.9803751,4.9803751 0 0 0 7.03959,0.228957 4.9803751,4.9803751 0 0 0 0.22896,-7.03959 L 75.20028,68.268587 A 24.901875,24.901875 0 0 0 73.07329,36.862795 24.901875,24.901875 0 0 0 37.875329,35.71799 Z m 3.405311,3.634276 A 19.9215,19.9215 0 0 1 69.43901,40.26811 19.9215,19.9215 0 0 1 68.52317,68.426475 19.9215,19.9215 0 0 1 40.3648,67.510634 19.9215,19.9215 0 0 1 41.28064,39.352266 Z"
     style="color:#000000;clip-rule:nonzero;display:inline;overflow:visible;visibility:visible;opacity:1;isolation:auto;mix-blend-mode:normal;color-interpolation:sRGB;color-interpolation-filters:linearRGB;solid-color:#000000;solid-opacity:1;fill:#ffffff;fill-opacity:1;fill-rule:nonzero;stroke:none;stroke-width:0;stroke-linecap:butt;stroke-linejoin:miter;stroke-miterlimit:4;stroke-dasharray:none;stroke-dashoffset:0;stroke-opacity:1;color-rendering:auto;image-rendering:auto;shape-rendering:auto;text-rendering:auto;enable-background:accumulate" />
</svg>
